<?xml version="1.0" encoding="UTF-8" standalone="no"?>
<!DOCTYPE svg PUBLIC "-//W3C//DTD SVG 1.1//EN" "http://www.w3.org/Graphics/SVG/1.1/DTD/svg11.dtd">
<svg width="100%" height="100%" viewBox="0 0 283 283" version="1.1" xmlns="http://www.w3.org/2000/svg" xmlns:xlink="http://www.w3.org/1999/xlink" xml:space="preserve" xmlns:serif="http://www.serif.com/" style="fill-rule:evenodd;clip-rule:evenodd;stroke-linejoin:round;stroke-miterlimit:1.41421;">
    <g transform="matrix(1,0,0,1,-4458.45,-5091.19)">
        <g transform="matrix(1,0,0,1,141.221,0.694108)">
            <circle cx="4458.31" cy="5231.57" r="141.073" style="fill:rgb(255,0,74);"/>
        </g>
        <path d="M4591.45,5224.19L4591.45,5182.39C4591.45,5181.31 4592.33,5180.43 4593.41,5180.43C4596.52,5180.43 4602.53,5180.43 4605.64,5180.43C4606.73,5180.43 4607.6,5181.31 4607.6,5182.39L4607.6,5224.19L4649.4,5224.19C4650.48,5224.19 4651.36,5225.06 4651.36,5226.15C4651.36,5229.25 4651.36,5235.27 4651.36,5238.38C4651.36,5239.46 4650.48,5240.34 4649.4,5240.34L4607.6,5240.34L4607.6,5282.13C4607.6,5283.22 4606.73,5284.09 4605.64,5284.09C4602.53,5284.09 4596.52,5284.09 4593.41,5284.09C4592.33,5284.09 4591.45,5283.22 4591.45,5282.13L4591.45,5240.34L4549.66,5240.34C4548.57,5240.34 4547.69,5239.46 4547.69,5238.38C4547.69,5235.27 4547.69,5229.25 4547.69,5226.15C4547.69,5225.06 4548.57,5224.19 4549.66,5224.19L4591.45,5224.19Z" style="fill:white;"/>
    </g>
</svg>

