<?xml version="1.0" encoding="UTF-8" standalone="no"?>
<!DOCTYPE svg PUBLIC "-//W3C//DTD SVG 1.1//EN" "http://www.w3.org/Graphics/SVG/1.1/DTD/svg11.dtd">
<svg width="100%" height="100%" viewBox="0 0 760 760" version="1.1" xmlns="http://www.w3.org/2000/svg" xmlns:xlink="http://www.w3.org/1999/xlink" xml:space="preserve" xmlns:serif="http://www.serif.com/" style="fill-rule:evenodd;clip-rule:evenodd;stroke-linejoin:round;stroke-miterlimit:1.41421;">
    <g transform="matrix(1,0,0,1,-6541.7,-4613.47)">
        <g transform="matrix(1,0,0,1,1218.41,-311.213)">
            <rect x="5323.29" y="4924.68" width="759.863" height="759.863" style="fill:none;"/>
            <g transform="matrix(0.948984,0,0,1,93.0368,113.98)">
                <g transform="matrix(1.05376,0,0,0.576213,300.829,2753.26)">
                    <path d="M5118.42,4129.67C5118.42,4098.79 5103.99,4073.75 5086.2,4073.75C5068.77,4073.75 5047.3,4073.75 5029.87,4073.75C5012.08,4073.75 4997.65,4098.79 4997.65,4129.67C4997.65,4247.01 4997.65,4517.78 4997.65,4635.12C4997.65,4666.01 5012.08,4691.04 5029.87,4691.04C5065.65,4691.04 5118.42,4691.04 5118.42,4691.04C5118.42,4691.04 5118.42,4281.66 5118.42,4129.67Z" style="fill:rgb(255,0,82);"/>
                </g>
                <g transform="matrix(1.05376,0,0,0.86075,488.164,1418.49)">
                    <path d="M5118.42,4111.18C5118.42,4101.26 5115.02,4091.74 5108.98,4084.72C5102.94,4077.7 5094.74,4073.75 5086.2,4073.75C5068.77,4073.75 5047.3,4073.75 5029.87,4073.75C5021.33,4073.75 5013.13,4077.7 5007.09,4084.72C5001.05,4091.74 4997.65,4101.26 4997.65,4111.18C4997.65,4244.9 4997.65,4691.04 4997.65,4691.04L5118.42,4691.04C5118.42,4691.04 5118.42,4244.9 5118.42,4111.18Z" style="fill:rgb(255,0,82);"/>
                </g>
                <g transform="matrix(1.05376,0,0,0.734358,675.498,2011.4)">
                    <path d="M5118.42,4117.63C5118.42,4105.99 5115.02,4094.83 5108.98,4086.6C5102.94,4078.37 5094.74,4073.75 5086.2,4073.75C5068.77,4073.75 5047.3,4073.75 5029.87,4073.75C5021.33,4073.75 5013.13,4078.37 5007.09,4086.6C5001.05,4094.83 4997.65,4105.99 4997.65,4117.63C4997.65,4258.63 4997.65,4691.04 4997.65,4691.04L5118.42,4691.04C5118.42,4691.04 5118.42,4258.63 5118.42,4117.63Z" style="fill:rgb(255,0,82);"/>
                </g>
                <g transform="matrix(1.05376,0,0,0.576213,862.833,2753.26)">
                    <path d="M5118.42,4129.67C5118.42,4098.79 5103.99,4073.75 5086.2,4073.75C5068.77,4073.75 5047.3,4073.75 5029.87,4073.75C5012.08,4073.75 4997.65,4098.79 4997.65,4129.67C4997.65,4281.66 4997.65,4691.04 4997.65,4691.04C4997.65,4691.04 5050.42,4691.04 5086.2,4691.04C5103.99,4691.04 5118.42,4666.01 5118.42,4635.12C5118.42,4517.78 5118.42,4247.01 5118.42,4129.67Z" style="fill:rgb(255,0,82);"/>
                </g>
            </g>
        </g>
    </g>
</svg>
