<?xml version="1.0" encoding="UTF-8" standalone="no"?>
<!DOCTYPE svg PUBLIC "-//W3C//DTD SVG 1.1//EN" "http://www.w3.org/Graphics/SVG/1.1/DTD/svg11.dtd">
<svg width="100%" height="100%" viewBox="0 0 283 283" version="1.1" xmlns="http://www.w3.org/2000/svg" xmlns:xlink="http://www.w3.org/1999/xlink" xml:space="preserve" xmlns:serif="http://www.serif.com/" style="fill-rule:evenodd;clip-rule:evenodd;stroke-linejoin:round;stroke-miterlimit:1.41421;">
    <g transform="matrix(1,0,0,1,-4946.47,-5405.48)">
        <g transform="matrix(1,0,0,1,629.235,314.99)">
            <circle cx="4458.31" cy="5231.57" r="141.073" style="fill:rgb(255,0,74);"/>
        </g>
        <g transform="matrix(1.46315,0,0,1.04706,-1673.54,70.5362)">
            <path d="M4606.23,5183.93L4606.26,5183.93L4606.3,5183.93L4606.34,5183.94L4606.37,5183.94L4606.41,5183.95L4606.44,5183.96L4606.48,5183.97L4606.51,5183.98L4606.54,5183.99L4606.58,5184L4606.61,5184.02L4606.64,5184.03L4606.68,5184.05L4606.71,5184.06L4606.74,5184.08L4606.77,5184.1L4606.8,5184.12L4606.83,5184.14L4606.86,5184.17L4606.89,5184.19L4606.92,5184.21L4606.95,5184.24L4606.98,5184.26L4607.01,5184.29L4607.04,5184.32L4607.06,5184.35L4607.09,5184.38L4607.11,5184.41L4607.14,5184.44L4607.16,5184.47L4607.19,5184.51L4607.21,5184.54L4607.24,5184.57L4607.26,5184.61L4607.28,5184.65L4607.3,5184.68L4607.32,5184.72L4607.34,5184.76L4607.36,5184.8L4607.38,5184.84L4607.4,5184.88L4607.42,5184.92L4607.43,5184.96L4607.45,5185L4607.46,5185.05L4607.48,5185.09L4607.49,5185.13L4607.51,5185.18L4607.52,5185.22L4607.53,5185.27L4607.54,5185.31L4607.55,5185.36L4607.56,5185.41L4607.57,5185.45L4607.57,5185.5L4607.58,5185.55L4607.59,5185.6L4607.59,5185.65L4607.6,5185.7L4607.6,5185.75L4607.6,5185.8L4607.6,5185.85L4607.6,5185.9L4607.6,5273.9L4607.6,5273.95L4607.6,5274.01L4607.6,5274.06L4607.6,5274.11L4607.59,5274.15L4607.59,5274.2L4607.58,5274.25L4607.57,5274.3L4607.57,5274.35L4607.56,5274.4L4607.55,5274.44L4607.54,5274.49L4607.53,5274.54L4607.52,5274.58L4607.51,5274.63L4607.49,5274.67L4607.48,5274.72L4607.46,5274.76L4607.45,5274.8L4607.43,5274.84L4607.42,5274.89L4607.4,5274.93L4607.38,5274.97L4607.36,5275.01L4607.34,5275.05L4607.32,5275.08L4607.3,5275.12L4607.28,5275.16L4607.26,5275.19L4607.24,5275.23L4607.21,5275.27L4607.19,5275.3L4607.16,5275.33L4607.14,5275.36L4607.11,5275.4L4607.09,5275.43L4607.06,5275.46L4607.04,5275.48L4607.01,5275.51L4606.98,5275.54L4606.95,5275.57L4606.92,5275.59L4606.89,5275.62L4606.86,5275.64L4606.83,5275.66L4606.8,5275.68L4606.77,5275.7L4606.74,5275.72L4606.71,5275.74L4606.68,5275.76L4606.64,5275.77L4606.61,5275.79L4606.58,5275.8L4606.54,5275.82L4606.51,5275.83L4606.48,5275.84L4606.44,5275.85L4606.41,5275.85L4606.37,5275.86L4606.34,5275.87L4606.3,5275.87L4606.26,5275.88L4606.23,5275.88L4606.19,5275.88L4592.86,5275.88L4592.83,5275.88L4592.79,5275.88L4592.75,5275.87L4592.72,5275.87L4592.68,5275.86L4592.65,5275.85L4592.61,5275.85L4592.58,5275.84L4592.54,5275.83L4592.51,5275.82L4592.48,5275.8L4592.44,5275.79L4592.41,5275.77L4592.38,5275.76L4592.34,5275.74L4592.31,5275.72L4592.28,5275.7L4592.25,5275.68L4592.22,5275.66L4592.19,5275.64L4592.16,5275.62L4592.13,5275.59L4592.1,5275.57L4592.07,5275.54L4592.05,5275.51L4592.02,5275.48L4591.99,5275.46L4591.96,5275.43L4591.94,5275.4L4591.91,5275.36L4591.89,5275.33L4591.86,5275.3L4591.84,5275.27L4591.82,5275.23L4591.79,5275.19L4591.77,5275.16L4591.75,5275.12L4591.73,5275.08L4591.71,5275.05L4591.69,5275.01L4591.67,5274.97L4591.65,5274.93L4591.64,5274.89L4591.62,5274.84L4591.6,5274.8L4591.59,5274.76L4591.57,5274.72L4591.56,5274.67L4591.55,5274.63L4591.53,5274.58L4591.52,5274.54L4591.51,5274.49L4591.5,5274.44L4591.49,5274.4L4591.49,5274.35L4591.48,5274.3L4591.47,5274.25L4591.47,5274.2L4591.46,5274.15L4591.46,5274.11L4591.45,5274.06L4591.45,5274.01L4591.45,5273.95L4591.45,5273.9L4591.45,5185.9L4591.45,5185.85L4591.45,5185.8L4591.45,5185.75L4591.46,5185.7L4591.46,5185.65L4591.47,5185.6L4591.47,5185.55L4591.48,5185.5L4591.49,5185.45L4591.49,5185.41L4591.5,5185.36L4591.51,5185.31L4591.52,5185.27L4591.53,5185.22L4591.55,5185.18L4591.56,5185.13L4591.57,5185.09L4591.59,5185.05L4591.6,5185L4591.62,5184.96L4591.64,5184.92L4591.65,5184.88L4591.67,5184.84L4591.69,5184.8L4591.71,5184.76L4591.73,5184.72L4591.75,5184.68L4591.77,5184.65L4591.79,5184.61L4591.82,5184.57L4591.84,5184.54L4591.86,5184.51L4591.89,5184.47L4591.91,5184.44L4591.94,5184.41L4591.96,5184.38L4591.99,5184.35L4592.02,5184.32L4592.05,5184.29L4592.07,5184.26L4592.1,5184.24L4592.13,5184.21L4592.16,5184.19L4592.19,5184.17L4592.22,5184.14L4592.25,5184.12L4592.28,5184.1L4592.31,5184.08L4592.34,5184.06L4592.38,5184.05L4592.41,5184.03L4592.44,5184.02L4592.48,5184L4592.51,5183.99L4592.54,5183.98L4592.58,5183.97L4592.61,5183.96L4592.65,5183.95L4592.68,5183.94L4592.72,5183.94L4592.75,5183.93L4592.79,5183.93L4592.83,5183.93L4592.86,5183.93L4606.19,5183.93L4606.23,5183.93Z" style="fill:white;"/>
        </g>
        <g transform="matrix(1.46315,0,0,1.04706,-1610.95,70.5362)">
            <path d="M4606.23,5183.93L4606.26,5183.93L4606.3,5183.93L4606.34,5183.94L4606.37,5183.94L4606.41,5183.95L4606.44,5183.96L4606.48,5183.97L4606.51,5183.98L4606.54,5183.99L4606.58,5184L4606.61,5184.02L4606.64,5184.03L4606.68,5184.05L4606.71,5184.06L4606.74,5184.08L4606.77,5184.1L4606.8,5184.12L4606.83,5184.14L4606.86,5184.17L4606.89,5184.19L4606.92,5184.21L4606.95,5184.24L4606.98,5184.26L4607.01,5184.29L4607.04,5184.32L4607.06,5184.35L4607.09,5184.38L4607.11,5184.41L4607.14,5184.44L4607.16,5184.47L4607.19,5184.51L4607.21,5184.54L4607.24,5184.57L4607.26,5184.61L4607.28,5184.65L4607.3,5184.68L4607.32,5184.72L4607.34,5184.76L4607.36,5184.8L4607.38,5184.84L4607.4,5184.88L4607.42,5184.92L4607.43,5184.96L4607.45,5185L4607.46,5185.05L4607.48,5185.09L4607.49,5185.13L4607.51,5185.18L4607.52,5185.22L4607.53,5185.27L4607.54,5185.31L4607.55,5185.36L4607.56,5185.41L4607.57,5185.45L4607.57,5185.5L4607.58,5185.55L4607.59,5185.6L4607.59,5185.65L4607.6,5185.7L4607.6,5185.75L4607.6,5185.8L4607.6,5185.85L4607.6,5185.9L4607.6,5273.9L4607.6,5273.95L4607.6,5274.01L4607.6,5274.06L4607.6,5274.11L4607.59,5274.15L4607.59,5274.2L4607.58,5274.25L4607.57,5274.3L4607.57,5274.35L4607.56,5274.4L4607.55,5274.44L4607.54,5274.49L4607.53,5274.54L4607.52,5274.58L4607.51,5274.63L4607.49,5274.67L4607.48,5274.72L4607.46,5274.76L4607.45,5274.8L4607.43,5274.84L4607.42,5274.89L4607.4,5274.93L4607.38,5274.97L4607.36,5275.01L4607.34,5275.05L4607.32,5275.08L4607.3,5275.12L4607.28,5275.16L4607.26,5275.19L4607.24,5275.23L4607.21,5275.27L4607.19,5275.3L4607.16,5275.33L4607.14,5275.36L4607.11,5275.4L4607.09,5275.43L4607.06,5275.46L4607.04,5275.48L4607.01,5275.51L4606.98,5275.54L4606.95,5275.57L4606.92,5275.59L4606.89,5275.62L4606.86,5275.64L4606.83,5275.66L4606.8,5275.68L4606.77,5275.7L4606.74,5275.72L4606.71,5275.74L4606.68,5275.76L4606.64,5275.77L4606.61,5275.79L4606.58,5275.8L4606.54,5275.82L4606.51,5275.83L4606.48,5275.84L4606.44,5275.85L4606.41,5275.85L4606.37,5275.86L4606.34,5275.87L4606.3,5275.87L4606.26,5275.88L4606.23,5275.88L4606.19,5275.88L4592.86,5275.88L4592.83,5275.88L4592.79,5275.88L4592.75,5275.87L4592.72,5275.87L4592.68,5275.86L4592.65,5275.85L4592.61,5275.85L4592.58,5275.84L4592.54,5275.83L4592.51,5275.82L4592.48,5275.8L4592.44,5275.79L4592.41,5275.77L4592.38,5275.76L4592.34,5275.74L4592.31,5275.72L4592.28,5275.7L4592.25,5275.68L4592.22,5275.66L4592.19,5275.64L4592.16,5275.62L4592.13,5275.59L4592.1,5275.57L4592.07,5275.54L4592.05,5275.51L4592.02,5275.48L4591.99,5275.46L4591.96,5275.43L4591.94,5275.4L4591.91,5275.36L4591.89,5275.33L4591.86,5275.3L4591.84,5275.27L4591.82,5275.23L4591.79,5275.19L4591.77,5275.16L4591.75,5275.12L4591.73,5275.08L4591.71,5275.05L4591.69,5275.01L4591.67,5274.97L4591.65,5274.93L4591.64,5274.89L4591.62,5274.84L4591.6,5274.8L4591.59,5274.76L4591.57,5274.72L4591.56,5274.67L4591.55,5274.63L4591.53,5274.58L4591.52,5274.54L4591.51,5274.49L4591.5,5274.44L4591.49,5274.4L4591.49,5274.35L4591.48,5274.3L4591.47,5274.25L4591.47,5274.2L4591.46,5274.15L4591.46,5274.11L4591.45,5274.06L4591.45,5274.01L4591.45,5273.95L4591.45,5273.9L4591.45,5185.9L4591.45,5185.85L4591.45,5185.8L4591.45,5185.75L4591.46,5185.7L4591.46,5185.65L4591.47,5185.6L4591.47,5185.55L4591.48,5185.5L4591.49,5185.45L4591.49,5185.41L4591.5,5185.36L4591.51,5185.31L4591.52,5185.27L4591.53,5185.22L4591.55,5185.18L4591.56,5185.13L4591.57,5185.09L4591.59,5185.05L4591.6,5185L4591.62,5184.96L4591.64,5184.92L4591.65,5184.88L4591.67,5184.84L4591.69,5184.8L4591.71,5184.76L4591.73,5184.72L4591.75,5184.68L4591.77,5184.65L4591.79,5184.61L4591.82,5184.57L4591.84,5184.54L4591.86,5184.51L4591.89,5184.47L4591.91,5184.44L4591.94,5184.41L4591.96,5184.38L4591.99,5184.35L4592.02,5184.32L4592.05,5184.29L4592.07,5184.26L4592.1,5184.24L4592.13,5184.21L4592.16,5184.19L4592.19,5184.17L4592.22,5184.14L4592.25,5184.12L4592.28,5184.1L4592.31,5184.08L4592.34,5184.06L4592.38,5184.05L4592.41,5184.03L4592.44,5184.02L4592.48,5184L4592.51,5183.99L4592.54,5183.98L4592.58,5183.97L4592.61,5183.96L4592.65,5183.95L4592.68,5183.94L4592.72,5183.94L4592.75,5183.93L4592.79,5183.93L4592.83,5183.93L4592.86,5183.93L4606.19,5183.93L4606.23,5183.93Z" style="fill:white;"/>
        </g>
    </g>
</svg>
