<?xml version="1.0" encoding="UTF-8" standalone="no"?>
<!DOCTYPE svg PUBLIC "-//W3C//DTD SVG 1.1//EN" "http://www.w3.org/Graphics/SVG/1.1/DTD/svg11.dtd">
<svg width="100%" height="100%" viewBox="0 0 100 100" version="1.1" xmlns="http://www.w3.org/2000/svg" xmlns:xlink="http://www.w3.org/1999/xlink" xml:space="preserve" xmlns:serif="http://www.serif.com/" style="fill-rule:evenodd;clip-rule:evenodd;stroke-linejoin:round;stroke-miterlimit:1.41421;">
    <path d="M100,7.171c0,-3.961 -3.21,-7.171 -7.171,-7.171c-18.42,0 -67.238,0 -85.658,0c-3.961,0 -7.171,3.21 -7.171,7.171c0,18.42 0,67.238 0,85.658c0,3.961 3.21,7.171 7.171,7.171c18.42,0 67.238,0 85.658,0c3.961,0 7.171,-3.21 7.171,-7.171c0,-18.42 0,-67.238 0,-85.658Z" style="fill:#fff;"/>
    <path id="searchicon" d="M38.718,55.621c-4.502,-7.087 -3.662,-16.6 2.52,-22.782c7.153,-7.154 18.769,-7.154 25.923,0c7.154,7.154 7.154,18.77 0,25.923c-6.182,6.182 -15.695,7.022 -22.782,2.52l-9.541,9.541c-1.563,1.563 -4.097,1.563 -5.66,0c-0.001,0 -0.001,0 -0.001,-0.001c-1.563,-1.563 -1.563,-4.097 0,-5.66l9.541,-9.541Zm22.781,-17.12c4.03,4.029 4.03,10.571 0,14.6c-4.029,4.029 -10.571,4.029 -14.6,0c-4.029,-4.029 -4.029,-10.571 0,-14.6c4.029,-4.03 10.571,-4.03 14.6,0Z" style="fill:#3ad4ff;"/>
</svg>